<svg width="2477" height="1062" viewBox="0 0 2477 1062" fill="none" xmlns="http://www.w3.org/2000/svg">
<rect x="14.5" y="471.5" width="2448" height="444" fill="black" stroke="#978E89" stroke-width="5"/>
<path d="M323.5 471.5H325H630H631.5V915.5H630H325H323.5V471.5Z" stroke="#978E89" stroke-width="5"/>
<rect x="1845.5" y="471.5" width="308" height="444" fill="black" stroke="#978E89" stroke-width="5"/>
<rect x="2154.5" y="471.5" width="308" height="444" fill="black" stroke="#978E89" stroke-width="5"/>
<ellipse cx="1239" cy="985" rx="299" ry="33" fill="#FFF7EB"/>
<rect x="939" y="418" width="598" height="572" fill="#FFF7EB"/>
<ellipse cx="1239" cy="415" rx="309" ry="33" fill="#F6EFE6"/>
<path d="M930 413L1056 64H1421L1548 413H930Z" fill="#F6EFE6"/>
<ellipse cx="1238.5" cy="64.5" rx="182.5" ry="30.5" fill="#D9D9D9"/>
<ellipse cx="1239" cy="446" rx="299" ry="33" fill="#BCBCBC"/>
<path d="M930 413L1056 64H1421L1548 413H930Z" fill="#F6EFE6"/>
<path d="M1238.5 99C1287.7 99 1332.36 95.6878 1364.83 90.292C1381.02 87.6007 1394.42 84.3537 1403.88 80.6364C1408.58 78.7875 1412.61 76.7111 1415.55 74.3264C1418.42 71.9937 1421 68.7262 1421 64.5C1421 60.2738 1418.42 57.0063 1415.55 54.6736C1412.61 52.2889 1408.58 50.2125 1403.88 48.3636C1394.42 44.6463 1381.02 41.3993 1364.83 38.708C1332.36 33.3122 1287.7 30 1238.5 30C1189.3 30 1144.64 33.3122 1112.17 38.708C1095.98 41.3993 1082.58 44.6463 1073.12 48.3636C1068.42 50.2125 1064.39 52.2889 1061.45 54.6736C1058.58 57.0063 1056 60.2738 1056 64.5C1056 68.7262 1058.58 71.9937 1061.45 74.3264C1064.39 76.7111 1068.42 78.7875 1073.12 80.6364C1082.58 84.3537 1095.98 87.6007 1112.17 90.292C1144.64 95.6878 1189.3 99 1238.5 99Z" fill="#FFFAF3" stroke="#EFE5DA" stroke-width="10"/>
<path d="M1391.72 62C1391.72 76.0833 1323.67 87.5 1239.72 87.5C1155.77 87.5 1087.72 76.0833 1087.72 62C1087.72 47.9167 1155.77 36.5 1239.72 36.5C1323.67 36.5 1391.72 47.9167 1391.72 62Z" fill="#EBE2D7"/>
<rect x="1087" y="42" width="13" height="18" fill="#EBE2D7"/>
<rect x="1087" y="42" width="13" height="18" fill="#EBE2D7"/>
<rect x="1378" y="42" width="13" height="18" fill="#EBE2D7"/>
<rect x="1378" y="42" width="13" height="18" fill="#EBE2D7"/>
<path d="M1239 70.5C1281.07 70.5 1319.21 67.6406 1346.89 62.9968C1360.71 60.6782 1372.04 57.8959 1379.98 54.7496C1383.93 53.1813 1387.19 51.4667 1389.5 49.5725C1391.78 47.7022 1393.5 45.3453 1393.5 42.5C1393.5 39.6547 1391.78 37.2978 1389.5 35.4275C1387.19 33.5333 1383.93 31.8187 1379.98 30.2504C1372.04 27.1041 1360.71 24.3218 1346.89 22.0032C1319.21 17.3594 1281.07 14.5 1239 14.5C1196.93 14.5 1158.79 17.3594 1131.11 22.0032C1117.29 24.3218 1105.96 27.1041 1098.02 30.2504C1094.07 31.8187 1090.81 33.5333 1088.5 35.4275C1086.22 37.2978 1084.5 39.6547 1084.5 42.5C1084.5 45.3453 1086.22 47.7022 1088.5 49.5725C1090.81 51.4667 1094.07 53.1813 1098.02 54.7496C1105.96 57.8959 1117.29 60.6782 1131.11 62.9968C1158.79 67.6406 1196.93 70.5 1239 70.5Z" fill="#FAF4EC" stroke="#D8B890" stroke-width="5"/>
<ellipse cx="1239" cy="415" rx="309" ry="33" fill="#F6EFE6"/>
<path d="M973 295C1014 340 1472.5 336 1505 295" stroke="#EFE5DA" stroke-width="17" stroke-linecap="round"/>
<path d="M1241 104.5V325" stroke="#EFE5DA" stroke-width="20" stroke-linecap="round"/>
<path d="M936.767 411.701C933.288 407.412 926.991 406.754 922.701 410.233C918.412 413.712 917.754 420.009 921.233 424.299L936.767 411.701ZM958.205 438.284C957.723 437.592 953.761 432.692 949.678 427.642C945.329 422.264 940.181 415.911 936.767 411.701L921.233 424.299C924.644 428.505 929.786 434.85 934.126 440.217C938.732 445.913 941.857 449.805 941.795 449.716L958.205 438.284Z" fill="#BCBCBC"/>
<path d="M1540.2 412.737C1543.66 408.432 1549.96 407.745 1554.26 411.204C1558.57 414.663 1559.25 420.957 1555.8 425.263L1540.2 412.737ZM1519.75 438.342C1520.12 437.808 1521.4 436.209 1522.56 434.757C1523.95 433.009 1525.83 430.654 1527.9 428.069C1532.05 422.897 1536.95 416.786 1540.2 412.737L1555.8 425.263C1552.55 429.308 1547.65 435.41 1543.51 440.571C1541.45 443.153 1539.57 445.494 1538.2 447.223C1536.58 449.247 1536.08 449.905 1536.25 449.658L1519.75 438.342Z" fill="#BCBCBC"/>
<path d="M1134 103L1093 320" stroke="#EFE5DA" stroke-width="20" stroke-linecap="round"/>
<path d="M1356 97L1396 316" stroke="#EFE5DA" stroke-width="20" stroke-linecap="round"/>
<path d="M1316.94 157H1161.06L1136 327H1341L1316.94 157Z" fill="#FFF9F2" stroke="#DDD5CC" stroke-width="10" stroke-linecap="round" stroke-linejoin="round"/>
<path d="M1318.94 157H1163.06L1138 327H1343L1318.94 157Z" stroke="#E44E4E" stroke-width="2" stroke-linecap="round"/>
<path d="M1117 426L1150 351H1331L1360.5 426H1117Z" fill="#6D5E5E" stroke="#BBB4AC" stroke-width="8" stroke-linecap="round" stroke-linejoin="round"/>
<path d="M1123 290L1154.31 361H1326.01L1354 290H1123Z" fill="#F6EFE6" stroke="#BBB4AC" stroke-width="8" stroke-linecap="round" stroke-linejoin="round"/>
<ellipse cx="1238.5" cy="350" rx="40.5" ry="39" fill="#D9D9D9"/>
<rect x="1159" y="347" width="7" height="75" fill="#D9D9D9"/>
<rect x="1315" y="345" width="7" height="77" fill="#D9D9D9"/>
<ellipse cx="978.067" cy="372.742" rx="12.5001" ry="13.2186" transform="rotate(13.314 978.067 372.742)" fill="#6D5E5E"/>
<ellipse cx="1020.98" cy="359.339" rx="19.5995" ry="31.677" transform="rotate(13.314 1020.98 359.339)" fill="#6D5E5E"/>
<path d="M1044.36 351.833C1042.42 360.036 1038.52 366.95 1033.79 371.499C1029.05 376.048 1023.49 378.222 1018.23 376.977C1012.97 375.732 1008.98 371.298 1006.78 365.109C1004.59 358.92 1004.2 350.99 1006.14 342.787C1008.08 334.584 1011.98 327.67 1016.72 323.121C1021.46 318.572 1027.01 316.398 1032.27 317.643C1037.53 318.888 1041.53 323.322 1043.72 329.511C1045.92 335.699 1046.31 343.629 1044.36 351.833Z" stroke="#F6EFE6" stroke-width="0.2"/>
<path d="M1026.36 409.833C1024.42 418.036 1020.52 424.95 1015.79 429.499C1011.05 434.048 1005.49 436.222 1000.23 434.977C994.972 433.732 990.978 429.298 988.783 423.109C986.589 416.92 986.2 408.99 988.141 400.787C990.082 392.584 993.985 385.67 998.72 381.121C1003.46 376.572 1009.01 374.398 1014.27 375.643C1019.53 376.888 1023.53 381.322 1025.72 387.511C1027.92 393.699 1028.31 401.629 1026.36 409.833Z" stroke="#F6EFE6" stroke-width="0.2"/>
<ellipse cx="1047.29" cy="405.945" rx="13.3851" ry="16.4385" transform="rotate(6.98857 1047.29 405.945)" fill="#6D5E5E"/>
<path d="M1064.21 403.876C1061.65 414.695 1052.74 421.804 1044.35 419.818C1035.96 417.833 1031.19 407.486 1033.75 396.667C1036.31 385.848 1045.21 378.739 1053.6 380.725C1061.99 382.71 1066.77 393.056 1064.21 403.876Z" stroke="#F6EFE6" stroke-width="0.2"/>
<path d="M1060.21 414.876C1057.65 425.695 1048.74 432.804 1040.35 430.818C1031.96 428.833 1027.19 418.486 1029.75 407.667C1032.31 396.848 1041.21 389.739 1049.6 391.725C1057.99 393.71 1062.77 404.056 1060.21 414.876Z" stroke="#F6EFE6" stroke-width="0.2"/>
<ellipse cx="1087.29" cy="389.797" rx="16.2384" ry="9.97544" transform="rotate(6.68137 1087.29 389.797)" fill="#6D5E5E"/>
<ellipse cx="1396.1" cy="397.359" rx="12.5001" ry="13.2186" transform="rotate(-7.40785 1396.1 397.359)" fill="#6D5E5E"/>
<ellipse cx="1431.5" cy="369.639" rx="19.5995" ry="31.677" transform="rotate(-7.40785 1431.5 369.639)" fill="#6D5E5E"/>
<path d="M1450.71 354.344C1451.8 362.703 1450.59 370.551 1447.77 376.48C1444.95 382.411 1440.53 386.411 1435.17 387.108C1429.8 387.805 1424.5 385.071 1420.26 380.058C1416.02 375.047 1412.85 367.767 1411.76 359.408C1410.67 351.048 1411.88 343.201 1414.7 337.271C1417.51 331.34 1421.94 327.341 1427.3 326.644C1432.66 325.947 1437.97 328.681 1442.21 333.694C1446.45 338.705 1449.62 345.984 1450.71 354.344Z" stroke="#F6EFE6" stroke-width="0.2"/>
<path d="M1454.4 414.961C1455.48 423.32 1454.28 431.168 1451.46 437.098C1448.64 443.028 1444.21 447.028 1438.85 447.725C1433.49 448.422 1428.19 445.688 1423.94 440.675C1419.7 435.664 1416.53 428.385 1415.45 420.025C1414.36 411.666 1415.56 403.818 1418.38 397.888C1421.2 391.958 1425.63 387.958 1430.99 387.261C1436.35 386.564 1441.66 389.298 1445.9 394.311C1450.14 399.322 1453.31 406.601 1454.4 414.961Z" stroke="#F6EFE6" stroke-width="0.2"/>
<ellipse cx="1472.59" cy="403.922" rx="13.3851" ry="16.4385" transform="rotate(-13.7333 1472.59 403.922)" fill="#6D5E5E"/>
<path d="M1487.83 407.703C1489.27 418.728 1483.45 428.528 1474.9 429.64C1466.35 430.751 1458.23 422.764 1456.79 411.739C1455.36 400.713 1461.17 390.913 1469.72 389.802C1478.27 388.69 1486.4 396.678 1487.83 407.703Z" stroke="#F6EFE6" stroke-width="0.2"/>
<ellipse cx="1504.29" cy="374.664" rx="16.2384" ry="9.97544" transform="rotate(-14.0405 1504.29 374.664)" fill="#6D5E5E"/>
<path d="M1139.5 503.5C1106.18 502.431 1087.79 500.986 1055.5 497V543.5C1087.69 550.771 1106.13 552.059 1139.5 551V503.5Z" stroke="#EDDFD0" stroke-width="10" stroke-linecap="round" stroke-linejoin="round"/>
<path d="M1536.5 955C1501.35 994.645 1058 1008.5 934 955" stroke="#EDDFD0" stroke-width="10" stroke-linecap="round"/>
<path d="M1519.98 460C1488.76 464.636 1471.25 466.358 1440 467.032V1009C1440 1009 1521.48 1005.45 1519.98 999.959C1518.48 994.469 1519.98 460 1519.98 460Z" fill="#D2CBC3" stroke="#D2CBC3" stroke-width="10" stroke-linecap="round" stroke-linejoin="round"/>
<path d="M930 419C1003 472 1489.5 458 1548 419" stroke="#BCBCBC" stroke-width="20" stroke-linecap="round"/>
<path d="M1425 446.169L1421.53 481.065C1407.07 485.184 1398.94 485.941 1384.38 483.934L1385.88 449.409L1373 388.939C1386.86 383.246 1396.28 383 1411.13 383L1425 446.169Z" fill="white"/>
<path d="M1425 446.169L1421.53 481.065C1407.07 485.184 1398.94 485.941 1384.38 483.934L1385.88 449.409M1425 446.169C1410.14 449.409 1400.52 451.135 1385.88 449.409M1425 446.169L1411.13 383C1396.28 383 1386.86 383.246 1373 388.939L1385.88 449.409" stroke="white" stroke-width="10" stroke-linecap="round" stroke-linejoin="round"/>
<path d="M988 999.5V468.5C967.5 465 952 463.5 937 451.5L940 985.594C958.112 992.829 968.834 996.893 988 999.5Z" fill="#6D5E5E" fill-opacity="0.8" stroke="#6D5E5E" stroke-width="10" stroke-linecap="round" stroke-linejoin="round"/>
<path d="M1279 833.257L1288.34 797H1336.94L1347.03 833.257L1339.93 874H1288.34L1279 833.257Z" fill="#D9D9D9"/>
<path d="M1279 833.257L1288.34 797H1336.94L1347.03 833.257M1279 833.257H1347.03M1279 833.257L1288.34 874H1339.93L1347.03 833.257" stroke="#D9D9D9" stroke-width="10" stroke-linecap="round"/>
<path d="M1279 833.257L1288.34 797H1336.94L1347.03 833.257H1279Z" fill="white" stroke="white" stroke-width="10" stroke-linecap="round"/>
<mask id="path-56-outside-1_60_5" maskUnits="userSpaceOnUse" x="0" y="0" width="2477" height="1030" fill="black">
<rect fill="white" width="2477" height="1030"/>
<path fill-rule="evenodd" clip-rule="evenodd" d="M1391.08 33.4942C1393.14 35.178 1395.09 37.4611 1395.76 40.354C1399.4 41.4193 1402.73 42.5381 1405.71 43.71C1410.63 45.643 1415.19 47.9435 1418.7 50.7924C1422.08 53.5375 1426 58.0841 1426 64.5C1426 67.4368 1425.18 69.9819 1423.96 72.1418L1502.15 286.992C1504.81 286.044 1507.9 286.45 1510.28 288.339C1513.96 291.255 1514.58 296.601 1511.66 300.28C1510.67 301.526 1509.52 302.674 1508.24 303.738L1546.58 409.099C1547.13 409.021 1547.68 408.989 1548.22 409.002C1549.8 409.036 1551.37 409.439 1552.8 410.226C1553.71 410.724 1554.56 411.37 1555.29 412.155C1556.16 413.076 1556.82 414.132 1557.28 415.26C1557.82 416.597 1558.05 418.008 1557.99 419.399C1557.94 420.843 1557.57 422.284 1556.87 423.614C1556.54 424.261 1556.13 424.876 1555.65 425.444C1552.4 429.489 1547.59 435.487 1543.51 440.571C1541.45 443.153 1539.57 445.494 1538.2 447.222C1537.7 447.851 1537.3 448.349 1537 448.728V469H1843H2152H2156H2465V918H2156H2152H1843H1537V950.025C1538.01 950.125 1539 950.534 1539.82 951.259C1541.88 953.091 1542.07 956.251 1540.24 958.317C1539.32 959.358 1538.23 960.342 1537 961.276V982.281C1537.66 983.178 1538 984.085 1538 985C1538 985.915 1537.66 986.822 1537 987.719V990H1534.59C1532.36 991.621 1529.06 993.204 1524.77 994.739C1524.79 995.972 1524.82 996.978 1524.84 997.752C1524.86 998.319 1524.88 998.728 1524.9 998.996C1524.9 999.036 1524.91 999.071 1524.91 999.101C1525.21 1000.71 1524.75 1002.16 1524.06 1003.21C1523.4 1004.21 1522.56 1004.83 1522.01 1005.18C1520.9 1005.89 1519.56 1006.37 1518.4 1006.71C1515.96 1007.44 1512.61 1008.07 1508.85 1008.63C1501.24 1009.76 1491.06 1010.73 1480.94 1011.52C1470.8 1012.31 1460.62 1012.93 1452.98 1013.35C1449.16 1013.56 1445.97 1013.72 1443.74 1013.83L1442.96 1013.87C1442.21 1013.9 1441.6 1013.93 1441.14 1013.95L1440.46 1013.98L1440.23 1013.99L1440.22 1014L1440.22 1014C1440.22 1014 1440.22 1014 1440.02 1009.43L1440.22 1014C1438.85 1014.05 1437.53 1013.55 1436.54 1012.61C1435.78 1011.88 1435.27 1010.94 1435.08 1009.91C1382.59 1014.95 1314.02 1018 1239 1018C1135.79 1018 1044.8 1012.23 991.065 1003.45C990.007 1004.27 988.66 1004.64 987.326 1004.45C967.535 1001.76 956.352 997.51 938.145 990.238C936.255 989.483 935.012 987.658 935 985.622L934.861 960.783C933.897 960.39 932.949 959.992 932.019 959.591C929.484 958.497 928.315 955.555 929.409 953.019C930.336 950.87 932.591 949.703 934.8 950.063L934.62 918H634H321H12V469H321H634H932.098L932 451.528C931.989 449.601 933.087 447.839 934.821 447C936.155 446.354 937.681 446.342 939 446.917V446.255C937.717 444.663 936.051 442.598 934.126 440.217C929.786 434.85 924.644 428.504 921.233 424.299C917.754 420.009 918.411 413.712 922.701 410.233C925.311 408.116 928.664 407.531 931.674 408.363L969.561 303.422C968.531 302.568 967.579 301.671 966.717 300.725C963.555 297.254 963.805 291.878 967.275 288.717C969.587 286.61 972.746 286.018 975.532 286.884L1053.05 72.1676C1051.83 70.0021 1051 67.4485 1051 64.5C1051 58.0841 1054.92 53.5375 1058.3 50.7924C1061.81 47.9435 1066.37 45.643 1071.29 43.71C1074.57 42.4234 1078.26 41.2009 1082.32 40.0428C1083.05 37.2969 1084.94 35.1172 1086.92 33.4942C1089.51 31.3658 1093.04 29.5377 1097.1 27.9265C1105.27 24.6847 1116.81 21.8675 1130.69 19.5377C1158.55 14.8647 1196.84 12 1239 12C1281.16 12 1319.45 14.8647 1347.31 19.5377C1361.19 21.8675 1372.73 24.6847 1380.9 27.9265C1384.96 29.5377 1388.49 31.3658 1391.08 33.4942ZM1524.92 999.249C1524.92 999.252 1524.92 999.238 1524.92 999.205C1524.92 999.232 1524.92 999.247 1524.92 999.249Z"/>
</mask>
<path d="M12 469V463H6V469H12ZM325 475C328.314 475 331 472.314 331 469C331 465.686 328.314 463 325 463V475ZM6 918C6 921.314 8.68629 924 12 924C15.3137 924 18 921.314 18 918H6ZM630 463C626.686 463 624 465.686 624 469C624 472.314 626.686 475 630 475V463ZM932.098 475C935.412 475 938.098 472.314 938.098 469C938.098 465.686 935.412 463 932.098 463V475ZM12 475H325V463H12V475ZM18 918V469H6V918H18ZM630 475H932.098V463H630V475ZM1395.76 40.354L1384.06 43.0584L1385.65 49.8991L1392.39 51.871L1395.76 40.354ZM1391.08 33.4942L1383.47 42.7741L1383.47 42.7744L1391.08 33.4942ZM1405.71 43.71L1401.32 54.8787L1401.32 54.8787L1405.71 43.71ZM1418.7 50.7924L1411.13 60.1071L1411.13 60.1073L1418.7 50.7924ZM1423.96 72.1418L1413.5 66.2574L1410.8 71.0633L1412.69 76.2453L1423.96 72.1418ZM1502.15 286.992L1490.87 291.096L1494.94 302.287L1506.16 298.299L1502.15 286.992ZM1510.28 288.339L1517.73 278.935L1517.73 278.935L1510.28 288.339ZM1511.66 300.28L1502.26 292.826L1502.26 292.826L1511.66 300.28ZM1508.24 303.738L1500.57 294.508L1494.08 299.906L1496.96 307.841L1508.24 303.738ZM1546.58 409.099L1535.3 413.202L1538.63 422.354L1548.27 420.979L1546.58 409.099ZM1548.22 409.002L1547.94 420.998L1547.95 420.999L1547.96 420.999L1548.22 409.002ZM1552.8 410.226L1547.03 420.746L1547.04 420.752L1547.05 420.758L1552.8 410.226ZM1555.29 412.155L1546.53 420.358L1546.54 420.368L1546.55 420.379L1555.29 412.155ZM1557.28 415.26L1546.14 419.737L1546.15 419.748L1546.15 419.759L1557.28 415.26ZM1557.99 419.399L1546 418.91L1546 418.919L1546 418.929L1557.99 419.399ZM1556.87 423.614L1546.23 418.066L1546.23 418.077L1546.22 418.088L1556.87 423.614ZM1555.65 425.444L1546.48 417.709L1546.38 417.818L1546.29 417.929L1555.65 425.444ZM1543.51 440.571L1552.88 448.073L1552.88 448.073L1543.51 440.571ZM1538.2 447.222L1528.81 439.743L1528.81 439.744L1538.2 447.222ZM1537 448.728L1527.6 441.271L1525 444.546V448.728H1537ZM1537 469H1525V481H1537V469ZM2465 469H2477V457H2465V469ZM2465 918V930H2477V918H2465ZM1537 918V906H1525V918H1537ZM1537 950.025H1525V960.888L1535.81 961.965L1537 950.025ZM1539.82 951.259L1547.78 942.28L1547.78 942.28L1539.82 951.259ZM1540.24 958.317L1531.26 950.356L1531.26 950.356L1540.24 958.317ZM1537 961.276L1529.74 951.721L1525 955.323V961.276H1537ZM1537 982.281H1525V986.234L1527.35 989.412L1537 982.281ZM1537 987.719L1527.35 980.588L1525 983.766V987.719H1537ZM1537 990V1002H1549V990H1537ZM1534.59 990V978H1530.69L1527.54 980.29L1534.59 990ZM1524.77 994.739L1520.72 983.441L1512.59 986.35L1512.77 994.985L1524.77 994.739ZM1524.84 997.752L1512.85 998.172L1512.85 998.175L1524.84 997.752ZM1524.9 998.996L1536.88 998.238L1536.88 998.229L1536.88 998.221L1524.9 998.996ZM1524.91 999.101L1512.94 999.974L1512.99 1000.64L1513.11 1001.29L1524.91 999.101ZM1524.06 1003.21L1534.09 1009.8L1534.09 1009.8L1524.06 1003.21ZM1522.01 1005.18L1528.46 1015.3L1528.46 1015.3L1522.01 1005.18ZM1518.4 1006.71L1514.97 995.216L1514.97 995.216L1518.4 1006.71ZM1508.85 1008.63L1510.62 1020.5L1510.62 1020.5L1508.85 1008.63ZM1480.94 1011.52L1481.87 1023.49L1481.87 1023.49L1480.94 1011.52ZM1452.98 1013.35L1453.64 1025.33L1453.64 1025.33L1452.98 1013.35ZM1443.74 1013.83L1444.32 1025.82L1444.32 1025.82L1443.74 1013.83ZM1442.96 1013.87L1443.53 1025.85L1443.53 1025.85L1442.96 1013.87ZM1441.14 1013.95L1441.69 1025.94L1441.69 1025.94L1441.14 1013.95ZM1440.46 1013.98L1440.99 1025.97L1441 1025.97L1440.46 1013.98ZM1440.23 1013.99L1440.73 1025.98L1440.75 1025.98L1440.76 1025.98L1440.23 1013.99ZM1440.22 1014L1440.68 1025.99L1440.7 1025.99L1440.72 1025.98L1440.22 1014ZM1440.22 1014V1026H1440.45L1440.68 1025.99L1440.22 1014ZM1440.22 1014L1440.74 1025.98L1452.73 1025.46L1452.21 1013.47L1440.22 1014ZM1436.54 1012.61L1444.84 1003.94L1444.84 1003.94L1436.54 1012.61ZM1435.08 1009.91L1446.88 1007.72L1444.88 996.919L1433.94 997.968L1435.08 1009.91ZM991.065 1003.45L992.999 991.608L987.84 990.765L983.709 993.97L991.065 1003.45ZM987.326 1004.45L988.944 992.564L988.944 992.564L987.326 1004.45ZM938.145 990.238L942.597 979.094L942.597 979.094L938.145 990.238ZM935 985.622L923 985.69L923 985.69L935 985.622ZM934.861 960.783L946.86 960.716L946.815 952.703L939.397 949.674L934.861 960.783ZM932.019 959.591L927.265 970.609L927.265 970.609L932.019 959.591ZM929.409 953.019L918.391 948.265L918.391 948.265L929.409 953.019ZM934.8 950.063L932.871 961.907L946.88 964.189L946.8 949.996L934.8 950.063ZM934.62 918L946.62 917.933L946.553 906H934.62V918ZM12 918H0V930H12V918ZM12 469V457H0V469H12ZM932.098 469V481H944.166L944.098 468.933L932.098 469ZM932 451.528L920 451.595L920 451.596L932 451.528ZM934.821 447L929.593 436.199L929.593 436.199L934.821 447ZM939 446.917L934.201 457.916L951 465.246V446.917H939ZM939 446.255H951V442.02L948.342 438.723L939 446.255ZM934.126 440.217L924.795 447.762L924.795 447.763L934.126 440.217ZM921.233 424.299L930.553 416.74L930.553 416.74L921.233 424.299ZM922.701 410.233L930.26 419.553L930.26 419.553L922.701 410.233ZM931.674 408.363L928.475 419.929L939.187 422.892L942.961 412.438L931.674 408.363ZM969.561 303.422L980.848 307.497L983.712 299.564L977.218 294.182L969.561 303.422ZM966.717 300.725L957.846 308.806L957.846 308.806L966.717 300.725ZM967.275 288.717L975.357 297.587L975.357 297.587L967.275 288.717ZM975.532 286.884L971.969 298.343L982.923 301.749L986.819 290.959L975.532 286.884ZM1053.05 72.1676L1064.34 76.2425L1066.21 71.0615L1063.5 66.2654L1053.05 72.1676ZM1058.3 50.7924L1065.87 60.1073L1065.87 60.1071L1058.3 50.7924ZM1071.29 43.71L1066.9 32.5412L1066.9 32.5413L1071.29 43.71ZM1082.32 40.0428L1085.61 51.5832L1092.16 49.7166L1093.92 43.1369L1082.32 40.0428ZM1086.92 33.4942L1094.53 42.7741L1094.53 42.7741L1086.92 33.4942ZM1097.1 27.9265L1092.68 16.7719L1092.68 16.7719L1097.1 27.9265ZM1130.69 19.5377L1128.71 7.70307L1128.71 7.70307L1130.69 19.5377ZM1347.31 19.5377L1345.32 31.3723L1345.32 31.3723L1347.31 19.5377ZM1380.9 27.9265L1385.32 16.7719L1385.32 16.7719L1380.9 27.9265ZM1524.92 999.205L1536.82 997.683L1512.97 1000.32L1524.92 999.205ZM1407.45 37.6496C1405.94 31.1231 1401.76 26.7349 1398.69 24.2141L1383.47 42.7744C1383.68 42.9454 1383.85 43.1004 1383.98 43.234C1384.11 43.3678 1384.19 43.4625 1384.22 43.5117C1384.29 43.6096 1384.16 43.4541 1384.06 43.0584L1407.45 37.6496ZM1410.1 32.5413C1406.72 31.2127 1403.04 29.9815 1399.13 28.837L1392.39 51.871C1395.76 52.8571 1398.74 53.8635 1401.32 54.8787L1410.1 32.5413ZM1426.26 41.4776C1421.39 37.5159 1415.53 34.6775 1410.1 32.5413L1401.32 54.8787C1405.72 56.6085 1409 58.3712 1411.13 60.1071L1426.26 41.4776ZM1438 64.5C1438 52.7911 1430.82 45.175 1426.26 41.4775L1411.13 60.1073C1412.12 60.9113 1412.9 61.7555 1413.39 62.5548C1413.83 63.2681 1414 63.8608 1414 64.5H1438ZM1434.42 78.0263C1436.5 74.3278 1438 69.7752 1438 64.5H1414C1414 64.8338 1413.96 65.1142 1413.88 65.37C1413.81 65.6336 1413.69 65.9272 1413.5 66.2574L1434.42 78.0263ZM1513.42 282.888L1435.24 68.0383L1412.69 76.2453L1490.87 291.096L1513.42 282.888ZM1517.73 278.935C1511.98 274.371 1504.53 273.41 1498.13 275.685L1506.16 298.299C1505.1 298.678 1503.82 298.529 1502.83 297.743L1517.73 278.935ZM1521.06 307.734C1528.1 298.862 1526.61 285.968 1517.73 278.935L1502.83 297.743C1501.31 296.542 1501.06 294.34 1502.26 292.826L1521.06 307.734ZM1515.91 312.967C1517.72 311.461 1519.48 309.729 1521.06 307.734L1502.26 292.826C1501.86 293.322 1501.32 293.888 1500.57 294.508L1515.91 312.967ZM1557.86 404.995L1519.52 299.634L1496.96 307.841L1535.3 413.202L1557.86 404.995ZM1548.5 397.005C1547.3 396.977 1546.09 397.047 1544.89 397.219L1548.27 420.979C1548.16 420.995 1548.05 421.001 1547.94 420.998L1548.5 397.005ZM1558.58 399.707C1555.41 397.966 1551.94 397.08 1548.49 397.005L1547.96 420.999C1547.66 420.992 1547.33 420.912 1547.03 420.746L1558.58 399.707ZM1564.05 403.952C1562.43 402.219 1560.57 400.794 1558.55 399.695L1547.05 420.758C1546.86 420.655 1546.69 420.52 1546.53 420.358L1564.05 403.952ZM1568.41 410.783C1567.41 408.297 1565.94 405.964 1564.03 403.93L1546.55 420.379C1546.37 420.189 1546.24 419.968 1546.14 419.737L1568.41 410.783ZM1569.98 419.888C1570.11 416.832 1569.6 413.717 1568.4 410.761L1546.15 419.759C1546.04 419.477 1545.99 419.184 1546 418.91L1569.98 419.888ZM1567.51 429.161C1569.05 426.221 1569.86 423.041 1569.98 419.869L1546 418.929C1546.01 418.646 1546.09 418.348 1546.23 418.066L1567.51 429.161ZM1564.82 433.18C1565.88 431.922 1566.79 430.565 1567.53 429.139L1546.22 418.088C1546.29 417.957 1546.37 417.829 1546.48 417.709L1564.82 433.18ZM1552.88 448.073C1556.95 442.994 1561.76 437.001 1565.01 432.96L1546.29 417.929C1543.04 421.976 1538.23 427.979 1534.15 433.07L1552.88 448.073ZM1547.58 454.702C1548.95 452.984 1550.81 450.652 1552.88 448.073L1534.15 433.07C1532.08 435.653 1530.2 438.003 1528.81 439.743L1547.58 454.702ZM1546.4 456.185C1546.7 455.81 1547.09 455.32 1547.58 454.701L1528.81 439.744C1528.3 440.382 1527.9 440.887 1527.6 441.271L1546.4 456.185ZM1549 469V448.728H1525V469H1549ZM1843 457H1537V481H1843V457ZM2152 457H1843V481H2152V457ZM2156 457H2152V481H2156V457ZM2465 457H2156V481H2465V457ZM2477 918V469H2453V918H2477ZM2156 930H2465V906H2156V930ZM2152 930H2156V906H2152V930ZM1843 930H2152V906H1843V930ZM1537 930H1843V906H1537V930ZM1549 950.025V918H1525V950.025H1549ZM1547.78 942.28C1545.01 939.825 1541.63 938.427 1538.19 938.084L1535.81 961.965C1534.39 961.824 1532.99 961.242 1531.86 960.238L1547.78 942.28ZM1549.22 966.278C1555.45 959.253 1554.8 948.509 1547.78 942.28L1531.86 960.237C1528.96 957.673 1528.7 953.249 1531.26 950.356L1549.22 966.278ZM1544.26 970.831C1545.99 969.514 1547.69 968.007 1549.22 966.278L1531.26 950.356C1530.95 950.708 1530.46 951.171 1529.74 951.721L1544.26 970.831ZM1549 982.281V961.276H1525V982.281H1549ZM1550 985C1550 980.955 1548.47 977.607 1546.65 975.151L1527.35 989.412C1526.86 988.748 1526 987.215 1526 985H1550ZM1546.65 994.849C1548.47 992.393 1550 989.045 1550 985H1526C1526 982.785 1526.86 981.252 1527.35 980.588L1546.65 994.849ZM1549 990V987.719H1525V990H1549ZM1534.59 1002H1537V978H1534.59V1002ZM1528.81 1006.04C1533.53 1004.35 1538.06 1002.31 1541.64 999.71L1527.54 980.29C1526.65 980.936 1524.58 982.062 1520.72 983.441L1528.81 1006.04ZM1536.84 997.331C1536.81 996.639 1536.79 995.697 1536.76 994.493L1512.77 994.985C1512.79 996.248 1512.82 997.318 1512.85 998.172L1536.84 997.331ZM1536.88 998.221C1536.87 998.127 1536.86 997.855 1536.84 997.328L1512.85 998.175C1512.87 998.783 1512.9 999.328 1512.93 999.77L1536.88 998.221ZM1536.88 998.229C1536.88 998.221 1536.88 998.217 1536.88 998.214C1536.88 998.212 1536.88 998.212 1536.88 998.213C1536.88 998.216 1536.88 998.225 1536.88 998.238L1512.92 999.753C1512.93 999.858 1512.94 999.945 1512.94 999.974L1536.88 998.229ZM1534.09 1009.8C1536.17 1006.63 1537.67 1002.07 1536.71 996.908L1513.11 1001.29C1512.75 999.345 1513.33 997.694 1514.03 996.624L1534.09 1009.8ZM1528.46 1015.3C1529.72 1014.5 1532.12 1012.79 1534.09 1009.8L1514.03 996.624C1514.68 995.631 1515.41 995.161 1515.57 995.061L1528.46 1015.3ZM1521.84 1018.21C1523.29 1017.78 1525.92 1016.92 1528.46 1015.3L1515.57 995.061C1515.69 994.983 1515.77 994.944 1515.78 994.936C1515.8 994.927 1515.78 994.938 1515.71 994.966C1515.57 995.025 1515.33 995.108 1514.97 995.216L1521.84 1018.21ZM1510.62 1020.5C1514.5 1019.92 1518.55 1019.2 1521.84 1018.21L1514.97 995.216C1513.38 995.69 1510.73 996.222 1507.09 996.764L1510.62 1020.5ZM1481.87 1023.49C1492.05 1022.69 1502.58 1021.7 1510.62 1020.5L1507.09 996.764C1499.91 997.831 1490.06 998.775 1480.01 999.559L1481.87 1023.49ZM1453.64 1025.33C1461.33 1024.91 1471.61 1024.29 1481.87 1023.49L1480.01 999.559C1469.99 1000.34 1459.91 1000.95 1452.32 1001.37L1453.64 1025.33ZM1444.32 1025.82C1446.58 1025.71 1449.79 1025.55 1453.64 1025.33L1452.32 1001.37C1448.53 1001.58 1445.37 1001.74 1443.16 1001.84L1444.32 1025.82ZM1443.53 1025.85L1444.32 1025.82L1443.16 1001.84L1442.38 1001.88L1443.53 1025.85ZM1441.69 1025.94C1442.15 1025.92 1442.77 1025.89 1443.53 1025.85L1442.38 1001.88C1441.64 1001.92 1441.04 1001.95 1440.59 1001.97L1441.69 1025.94ZM1441 1025.97L1441.69 1025.94L1440.6 1001.97L1439.91 1002L1441 1025.97ZM1440.76 1025.98L1440.99 1025.97L1439.93 1002L1439.7 1002.01L1440.76 1025.98ZM1440.72 1025.98L1440.73 1025.98L1439.73 1002.01L1439.72 1002.01L1440.72 1025.98ZM1440.68 1025.99L1440.68 1025.99L1439.76 1002L1439.76 1002L1440.68 1025.99ZM1428.03 1009.95C1428.13 1012.23 1428.18 1013.38 1428.2 1013.95C1428.22 1014.24 1428.22 1014.39 1428.23 1014.47C1428.23 1014.5 1428.23 1014.56 1428.23 1014.62C1428.24 1014.64 1428.24 1014.67 1428.24 1014.72C1428.24 1014.75 1428.25 1014.85 1428.26 1014.99C1428.27 1015.05 1428.28 1015.19 1428.3 1015.36C1428.31 1015.47 1428.36 1015.88 1428.46 1016.4C1428.52 1016.66 1428.63 1017.16 1428.83 1017.77C1429 1018.3 1429.44 1019.51 1430.36 1020.84C1431.44 1022.39 1433.25 1024.2 1436.01 1025.23C1438.34 1026.11 1440.49 1026 1440.22 1026V1002C1439.95 1002 1442.09 1001.88 1444.43 1002.76C1447.18 1003.79 1449 1005.6 1450.07 1007.15C1451 1008.48 1451.44 1009.69 1451.61 1010.22C1451.81 1010.83 1451.92 1011.33 1451.98 1011.59C1452.08 1012.11 1452.13 1012.52 1452.14 1012.63C1452.16 1012.8 1452.17 1012.94 1452.18 1013C1452.19 1013.13 1452.19 1013.24 1452.2 1013.26C1452.2 1013.31 1452.2 1013.34 1452.2 1013.35C1452.2 1013.39 1452.2 1013.42 1452.2 1013.38C1452.2 1013.32 1452.19 1013.18 1452.18 1012.9C1452.16 1012.33 1452.11 1011.19 1452.01 1008.91L1428.03 1009.95ZM1452.21 1013.47L1452.01 1008.91L1428.03 1009.95L1428.23 1014.52L1452.21 1013.47ZM1428.24 1021.28C1431.59 1024.49 1436.11 1026.19 1440.74 1025.98L1439.7 1002.01C1441.6 1001.92 1443.46 1002.62 1444.84 1003.94L1428.24 1021.28ZM1423.29 1012.11C1423.93 1015.58 1425.65 1018.8 1428.24 1021.28L1444.84 1003.94C1445.91 1004.97 1446.62 1006.29 1446.88 1007.72L1423.29 1012.11ZM1239 1030C1314.31 1030 1383.27 1026.94 1436.23 1021.86L1433.94 997.968C1381.91 1002.96 1313.74 1006 1239 1006V1030ZM989.13 1015.29C1043.79 1024.22 1135.53 1030 1239 1030V1006C1136.06 1006 1045.8 1000.23 992.999 991.608L989.13 1015.29ZM985.708 1016.34C990.246 1016.96 994.824 1015.72 998.421 1012.93L983.709 993.97C985.19 992.821 987.075 992.31 988.944 992.564L985.708 1016.34ZM933.694 1001.38C952.129 1008.75 964.419 1013.45 985.708 1016.34L988.944 992.564C970.652 990.075 960.575 986.275 942.597 979.094L933.694 1001.38ZM923 985.69C923.039 992.609 927.268 998.815 933.694 1001.38L942.597 979.094C945.243 980.151 946.984 982.706 947 985.555L923 985.69ZM922.861 960.851L923 985.69L947 985.555L946.86 960.716L922.861 960.851ZM927.265 970.609C928.27 971.043 929.29 971.47 930.324 971.893L939.397 949.674C938.503 949.309 937.628 948.942 936.773 948.573L927.265 970.609ZM918.391 948.265C914.671 956.886 918.645 966.889 927.265 970.609L936.773 948.573C940.322 950.104 941.959 954.223 940.427 957.773L918.391 948.265ZM936.73 938.219C929.219 936.996 921.549 940.944 918.391 948.265L940.427 957.773C939.123 960.796 935.962 962.411 932.871 961.907L936.73 938.219ZM922.62 918.067L922.801 950.131L946.8 949.996L946.62 917.933L922.62 918.067ZM634 930H934.62V906H634V930ZM321 930H634V906H321V930ZM12 930H321V906H12V930ZM0 469V918H24V469H0ZM321 457H12V481H321V457ZM634 457H321V481H634V457ZM932.098 457H634V481H932.098V457ZM920 451.596L920.098 469.067L944.098 468.933L944 451.461L920 451.596ZM929.593 436.199C923.695 439.054 919.964 445.044 920 451.595L944 451.461C944.015 454.159 942.478 456.625 940.05 457.801L929.593 436.199ZM943.799 435.919C939.319 433.964 934.128 434.003 929.593 436.199L940.05 457.801C938.181 458.705 936.043 458.72 934.201 457.916L943.799 435.919ZM927 446.255V446.917H951V446.255H927ZM924.795 447.763C926.715 450.137 928.377 452.198 929.658 453.786L948.342 438.723C947.057 437.129 945.387 435.059 943.457 432.672L924.795 447.763ZM911.913 431.857C915.322 436.061 920.459 442.401 924.795 447.762L943.457 432.672C939.112 427.298 933.966 420.948 930.553 416.74L911.913 431.857ZM915.142 400.913C905.705 408.566 904.259 422.421 911.913 431.858L930.553 416.74C931.249 417.598 931.118 418.857 930.26 419.553L915.142 400.913ZM934.873 396.797C928.286 394.976 920.892 396.25 915.142 400.913L930.26 419.553C929.73 419.983 929.043 420.086 928.475 419.929L934.873 396.797ZM958.274 299.347L920.387 404.288L942.961 412.438L980.848 307.497L958.274 299.347ZM957.846 308.806C959.127 310.212 960.494 311.492 961.904 312.661L977.218 294.182C976.569 293.644 976.031 293.129 975.587 292.643L957.846 308.806ZM959.193 279.846C950.824 287.471 950.221 300.437 957.846 308.806L975.587 292.643C976.889 294.072 976.786 296.285 975.357 297.587L959.193 279.846ZM979.095 275.425C972.411 273.347 964.781 274.755 959.193 279.846L975.357 297.587C974.394 298.465 973.081 298.689 971.969 298.343L979.095 275.425ZM1041.76 68.0926L964.245 282.809L986.819 290.959L1064.34 76.2425L1041.76 68.0926ZM1039 64.5C1039 69.7969 1040.51 74.3642 1042.6 78.0697L1063.5 66.2654C1063.31 65.9332 1063.19 65.6379 1063.12 65.3732C1063.04 65.1163 1063 64.8349 1063 64.5H1039ZM1050.74 41.4775C1046.18 45.175 1039 52.7911 1039 64.5H1063C1063 63.8608 1063.17 63.2681 1063.61 62.5548C1064.1 61.7555 1064.88 60.9113 1065.87 60.1073L1050.74 41.4775ZM1066.9 32.5413C1061.47 34.6776 1055.61 37.5159 1050.74 41.4776L1065.87 60.1071C1068 58.3712 1071.28 56.6085 1075.68 54.8787L1066.9 32.5413ZM1079.03 28.5024C1074.68 29.7417 1070.61 31.0835 1066.9 32.5412L1075.68 54.8788C1078.52 53.7634 1081.83 52.66 1085.61 51.5832L1079.03 28.5024ZM1079.31 24.2143C1076.34 26.6529 1072.37 30.8098 1070.73 36.9487L1093.92 43.1369C1093.82 43.4901 1093.7 43.6126 1093.79 43.5009C1093.83 43.4461 1093.91 43.3505 1094.03 43.2196C1094.16 43.089 1094.32 42.9389 1094.53 42.7741L1079.31 24.2143ZM1092.68 16.7719C1088.09 18.5897 1083.28 20.9625 1079.31 24.2143L1094.53 42.7741C1095.75 41.7691 1097.98 40.4856 1101.53 39.0811L1092.68 16.7719ZM1128.71 7.70307C1114.5 10.0869 1102.01 13.0718 1092.68 16.7719L1101.53 39.0811C1108.54 36.2976 1119.11 33.648 1132.68 31.3723L1128.71 7.70307ZM1239 0C1196.38 0 1157.4 2.88979 1128.71 7.70307L1132.68 31.3723C1159.7 26.8395 1197.29 24 1239 24V0ZM1349.29 7.70307C1320.6 2.88979 1281.62 0 1239 0V24C1280.71 24 1318.3 26.8395 1345.32 31.3723L1349.29 7.70307ZM1385.32 16.7719C1375.99 13.0718 1363.5 10.0869 1349.29 7.70307L1345.32 31.3723C1358.89 33.648 1369.46 36.2976 1376.47 39.0811L1385.32 16.7719ZM1398.69 24.2143C1394.72 20.9625 1389.91 18.5897 1385.32 16.7719L1376.47 39.0811C1380.02 40.4856 1382.25 41.7691 1383.47 42.7741L1398.69 24.2143ZM1512.92 999.249C1512.92 999.125 1512.92 998.678 1512.98 998.108C1513 997.862 1513.07 997.193 1513.27 996.359C1513.38 995.947 1513.59 995.171 1514.01 994.253C1514.35 993.518 1515.32 991.555 1517.46 989.855C1520.17 987.699 1524.14 986.53 1528.26 987.723C1531.5 988.66 1533.36 990.66 1534.01 991.416C1535.37 992.996 1535.97 994.561 1536.05 994.755C1536.4 995.622 1536.57 996.345 1536.59 996.436C1536.69 996.853 1536.74 997.186 1536.75 997.241C1536.77 997.362 1536.79 997.459 1536.79 997.512C1536.82 997.695 1536.84 997.837 1536.84 997.864C1536.85 997.97 1536.86 998.05 1536.86 998.089L1512.97 1000.32C1512.98 1000.39 1512.99 1000.5 1513 1000.62C1513 1000.65 1513.02 1000.8 1513.05 1000.98C1513.06 1001.04 1513.07 1001.14 1513.09 1001.26C1513.1 1001.31 1513.16 1001.65 1513.26 1002.06C1513.28 1002.15 1513.44 1002.88 1513.79 1003.74C1513.87 1003.94 1514.47 1005.5 1515.83 1007.08C1516.48 1007.84 1518.35 1009.84 1521.58 1010.78C1525.71 1011.97 1529.67 1010.8 1532.39 1008.64C1534.53 1006.94 1535.5 1004.98 1535.83 1004.25C1536.25 1003.33 1536.47 1002.55 1536.57 1002.14C1536.77 1001.31 1536.84 1000.64 1536.87 1000.39C1536.92 999.821 1536.92 999.374 1536.92 999.249H1512.92ZM1513.01 1000.73C1513.01 1000.67 1513 1000.59 1512.99 1000.5C1512.98 1000.46 1512.98 1000.39 1512.97 1000.3C1512.96 1000.26 1512.96 1000.18 1512.95 1000.08C1512.95 1000.03 1512.94 999.951 1512.94 999.848C1512.93 999.78 1512.92 999.548 1512.92 999.249H1536.92C1536.92 998.951 1536.91 998.718 1536.91 998.649C1536.9 998.546 1536.9 998.463 1536.89 998.414C1536.89 998.314 1536.88 998.233 1536.87 998.19C1536.87 998.097 1536.86 998.021 1536.85 997.971C1536.84 997.866 1536.83 997.769 1536.82 997.683L1513.01 1000.73Z" mask="url(#path-56-outside-1_60_5)"/>
</svg>
