<svg width="2453" height="1287" viewBox="0 0 2453 1287" fill="none" xmlns="http://www.w3.org/2000/svg">
<path d="M1374 147.5C1374 228.962 1307.96 295 1226.5 295C1145.04 295 1079 228.962 1079 147.5C1079 66.038 1145.04 0 1226.5 0C1307.96 0 1374 66.038 1374 147.5Z" fill="#D9D9D9"/>
<path d="M1337 147C1337 207.751 1287.75 257 1227 257C1166.25 257 1117 207.751 1117 147C1117 86.2487 1166.25 37 1227 37C1287.75 37 1337 86.2487 1337 147Z" fill="#CBCBCB"/>
<path d="M0 732H2453V1181H0V732Z" fill="black"/>
<path fill-rule="evenodd" clip-rule="evenodd" d="M2448 737H5V1176H2448V737ZM0 732V1181H2453V732H0Z" fill="#978E89"/>
<path d="M0 732H313V1181H0V732Z" fill="black"/>
<path fill-rule="evenodd" clip-rule="evenodd" d="M308 737H5V1176H308V737ZM0 732V1181H313V732H0Z" fill="#978E89"/>
<path d="M309 732H622V1181H309V732Z" fill="black"/>
<path fill-rule="evenodd" clip-rule="evenodd" d="M617 737H314V1176H617V737ZM309 732V1181H622V732H309Z" fill="#978E89"/>
<path d="M618 732H931V1181H618V732Z" fill="black"/>
<path fill-rule="evenodd" clip-rule="evenodd" d="M926 737H623V1176H926V737ZM618 732V1181H931V732H618Z" fill="#978E89"/>
<path d="M830 992.224L934 754V1218C892.667 1215.12 834.5 1207.5 830 1195.37C825.5 1183.23 830 992.224 830 992.224Z" fill="#EFEFEF"/>
<path fill-rule="evenodd" clip-rule="evenodd" d="M929.418 752L939 754V1223.36L933.653 1222.99C912.883 1221.54 887.8 1218.9 867.27 1215.07C857.03 1213.16 847.731 1210.92 840.616 1208.31C837.067 1207.01 833.873 1205.55 831.328 1203.89C828.886 1202.29 826.425 1200.1 825.312 1197.1C824.779 1195.67 824.492 1193.6 824.285 1191.6C824.057 1189.4 823.87 1186.63 823.714 1183.39C823.402 1176.92 823.208 1168.39 823.102 1158.56C822.89 1138.89 823.031 1113.83 823.313 1089.19C823.594 1064.54 824.016 1040.27 824.368 1022.16C824.544 1013.11 824.702 1005.6 824.817 1000.35C824.874 997.722 824.92 995.662 824.952 994.259C824.968 993.557 824.98 993.019 824.989 992.657L825.001 992.109C825.001 992.107 825.001 992.107 830 992.224L825.001 992.107L825.025 991.124L929.418 752ZM834.976 993.324C834.969 993.639 834.96 994.027 834.949 994.486C834.917 995.887 834.871 997.943 834.814 1000.56C834.7 1005.81 834.542 1013.31 834.366 1022.36C834.015 1040.44 833.593 1064.69 833.312 1089.3C833.031 1113.93 832.891 1138.89 833.101 1158.45C833.207 1168.24 833.399 1176.62 833.702 1182.91C833.854 1186.06 834.031 1188.63 834.232 1190.57C834.332 1191.54 834.434 1192.3 834.532 1192.87C834.613 1193.34 834.673 1193.57 834.688 1193.62C834.69 1193.63 834.691 1193.63 834.691 1193.63C834.71 1193.67 834.803 1193.85 835.09 1194.15C835.435 1194.52 835.983 1194.98 836.803 1195.52C838.461 1196.61 840.873 1197.76 844.056 1198.92C850.404 1201.25 859.074 1203.37 869.105 1205.24C887.409 1208.66 909.608 1211.13 929 1212.62V777.95L834.976 993.324Z" fill="#EFEFEF"/>
<path d="M1831 732H2144V1181H1831V732Z" fill="black"/>
<path fill-rule="evenodd" clip-rule="evenodd" d="M2139 737H1836V1176H2139V737ZM1831 732V1181H2144V732H1831Z" fill="#978E89"/>
<path d="M2140 732H2453V1181H2140V732Z" fill="black"/>
<path fill-rule="evenodd" clip-rule="evenodd" d="M2448 737H2145V1176H2448V737ZM2140 732V1181H2453V732H2140Z" fill="#978E89"/>
<path d="M1623.96 996.332L1518 754V1226C1560.11 1223.08 1619.38 1215.32 1623.96 1202.98C1628.55 1190.63 1623.96 996.332 1623.96 996.332Z" fill="#EFEFEF"/>
<path fill-rule="evenodd" clip-rule="evenodd" d="M1522.58 751.997L1513 754V1231.36L1518.35 1230.99C1539.51 1229.52 1565.06 1226.83 1585.97 1222.94C1596.4 1220.99 1605.87 1218.71 1613.11 1216.07C1616.72 1214.74 1619.97 1213.26 1622.55 1211.57C1625.04 1209.95 1627.52 1207.74 1628.65 1204.72C1629.19 1203.27 1629.48 1201.17 1629.69 1199.14C1629.92 1196.91 1630.11 1194.08 1630.27 1190.79C1630.59 1184.21 1630.79 1175.53 1630.9 1165.53C1631.11 1145.53 1630.97 1120.04 1630.68 1094.97C1630.39 1069.89 1629.96 1045.2 1629.61 1026.79C1629.43 1017.58 1629.27 1009.94 1629.15 1004.6C1629.09 1001.93 1629.04 999.831 1629.01 998.403C1629 997.689 1628.98 997.142 1628.97 996.774L1628.96 996.216C1628.96 996.215 1628.96 996.214 1623.96 996.332L1628.96 996.214L1628.94 995.23L1522.58 751.997ZM1618.99 997.433C1618.99 997.756 1619 998.156 1619.01 998.631C1619.05 1000.06 1619.09 1002.15 1619.15 1004.81C1619.27 1010.15 1619.43 1017.78 1619.61 1026.98C1619.97 1045.38 1620.4 1070.04 1620.68 1095.08C1620.97 1120.13 1621.11 1145.53 1620.9 1165.43C1620.79 1175.38 1620.59 1183.91 1620.28 1190.31C1620.13 1193.52 1619.95 1196.13 1619.74 1198.1C1619.64 1199.09 1619.54 1199.87 1619.44 1200.45C1619.35 1200.94 1619.29 1201.17 1619.28 1201.23C1619.27 1201.24 1619.27 1201.24 1619.27 1201.24C1619.26 1201.28 1619.16 1201.47 1618.85 1201.8C1618.49 1202.18 1617.93 1202.65 1617.09 1203.2C1615.39 1204.31 1612.92 1205.49 1609.68 1206.67C1603.2 1209.04 1594.36 1211.2 1584.14 1213.1C1565.45 1216.59 1542.78 1219.1 1523 1220.62V777.915L1618.99 997.433Z" fill="#EFEFEF"/>
<path d="M1525 1254C1525 1272.23 1391.13 1287 1226 1287C1060.87 1287 927 1272.23 927 1254C927 1235.77 1060.87 1221 1226 1221C1391.13 1221 1525 1235.77 1525 1254Z" fill="white"/>
<path d="M923.042 554.807C901.628 529.413 1061 301 1061 301L973.265 614.491C973.265 614.491 944.456 580.201 923.042 554.807Z" fill="#DADADA"/>
<path fill-rule="evenodd" clip-rule="evenodd" d="M1056.9 298.139L1065.82 302.347L975.528 624.958L969.437 617.708L973.265 614.491C969.437 617.708 969.437 617.708 969.437 617.708L969.436 617.706L969.432 617.702L968.158 616.185C967.328 615.198 966.119 613.759 964.602 611.954C961.566 608.343 957.296 603.263 952.357 597.39C942.478 585.644 929.924 570.725 919.219 558.03C916.795 555.154 916.073 551.39 916.062 547.786C916.052 544.105 916.779 539.876 917.99 535.325C920.417 526.203 925.041 514.87 931.052 502.282C943.099 477.051 961.126 445.936 979.735 415.756C998.362 385.546 1017.65 356.144 1032.28 334.304C1039.59 323.381 1045.75 314.345 1050.07 308.037C1052.23 304.883 1053.94 302.411 1055.1 300.726C1055.69 299.884 1056.13 299.238 1056.44 298.802C1056.59 298.585 1056.7 298.419 1056.78 298.308L1056.9 298.142C1056.9 298.14 1056.9 298.139 1061 301L1056.9 298.139ZM1048.02 328.817C1045.72 332.227 1043.23 335.924 1040.59 339.868C1026 361.649 1006.79 390.938 988.247 421.005C969.689 451.103 951.888 481.853 940.076 506.591C934.157 518.987 929.843 529.666 927.654 537.896C926.556 542.021 926.055 545.303 926.062 547.757C926.07 550.29 926.613 551.285 926.864 551.584C937.573 564.283 950.131 579.206 960.01 590.954C964.303 596.058 968.091 600.564 971.002 604.027L1048.02 328.817Z" fill="#DADADA"/>
<path d="M1538.09 559.091C1556.44 534.861 1412.4 325.987 1412.4 325.987L1495.05 616.035C1495.05 616.035 1519.74 583.32 1538.09 559.091Z" fill="#DADADA"/>
<path fill-rule="evenodd" clip-rule="evenodd" d="M1416.51 323.149L1407.59 327.358L1492.99 627.061L1499.04 619.047L1495.05 616.035C1499.04 619.047 1499.04 619.047 1499.04 619.047L1499.04 619.045L1499.04 619.041L1500.13 617.594C1500.84 616.652 1501.88 615.28 1503.18 613.557C1505.78 610.112 1509.44 605.266 1513.68 599.663C1522.14 588.456 1532.9 574.222 1542.08 562.11C1544.2 559.306 1544.76 555.747 1544.7 552.398C1544.65 548.959 1543.93 545.027 1542.78 540.807C1540.49 532.35 1536.22 521.89 1530.71 510.301C1519.67 487.071 1503.28 458.513 1486.39 430.848C1469.49 403.154 1452.02 376.232 1438.79 356.242C1432.17 346.245 1426.6 337.976 1422.69 332.205C1420.73 329.319 1419.19 327.057 1418.14 325.516C1417.61 324.745 1417.21 324.155 1416.93 323.756C1416.8 323.557 1416.69 323.406 1416.62 323.304L1416.52 323.152C1416.51 323.15 1416.51 323.149 1412.4 325.987L1416.51 323.149ZM1425.79 354.756C1427.28 356.98 1428.83 359.32 1430.45 361.763C1443.65 381.694 1461.04 408.505 1477.86 436.058C1494.69 463.64 1510.87 491.843 1521.68 514.592C1527.09 525.992 1531.07 535.825 1533.13 543.429C1534.17 547.24 1534.67 550.28 1534.7 552.562C1534.74 554.935 1534.27 555.846 1534.1 556.072C1524.93 568.189 1514.16 582.427 1505.7 593.635C1502.41 597.983 1499.47 601.875 1497.1 605.011L1425.79 354.756Z" fill="#DADADA"/>
<path d="M927 681H1525V1253H927V681Z" fill="white"/>
<path fill-rule="evenodd" clip-rule="evenodd" d="M1034 729L1034 1278L1024 1278L1024 729L1034 729Z" fill="#EFEFEF"/>
<path fill-rule="evenodd" clip-rule="evenodd" d="M1128 740V1285H1118V740H1128Z" fill="#EFEFEF"/>
<path fill-rule="evenodd" clip-rule="evenodd" d="M1338 739V1284H1328V739H1338Z" fill="#EFEFEF"/>
<path fill-rule="evenodd" clip-rule="evenodd" d="M1431 729L1431 1278L1421 1278L1421 729L1431 729Z" fill="#EFEFEF"/>
<path fill-rule="evenodd" clip-rule="evenodd" d="M1511 716L1511 1265L1501 1265L1501 716L1511 716Z" fill="#EFEFEF"/>
<path fill-rule="evenodd" clip-rule="evenodd" d="M952 716L952 1265L942 1265L942 716L952 716Z" fill="#EFEFEF"/>
<path d="M1536 678C1536 696.225 1397.66 711 1227 711C1056.34 711 918 696.225 918 678C918 659.775 1056.34 645 1227 645C1397.66 645 1536 659.775 1536 678Z" fill="#F6EFE6"/>
<path d="M918 676L1044 327H1409L1536 676H918Z" fill="#F6EFE6"/>
<path d="M1192 1281.42V744C1219.11 747.074 1234.45 746.991 1262 744V1281.42C1234.37 1282.09 1219.07 1282.29 1192 1281.42Z" fill="#EFEFEF"/>
<path fill-rule="evenodd" clip-rule="evenodd" d="M1187 738.401L1192.56 739.032C1219.29 742.062 1234.25 741.983 1261.46 739.029L1267 738.428V1286.3L1262.12 1286.42C1234.45 1287.09 1219.04 1287.3 1191.84 1286.41L1187 1286.26V738.401ZM1197 749.571V1276.57C1219.46 1277.22 1234.02 1277.07 1257 1276.53V749.549C1234.28 751.814 1219.41 751.878 1197 749.571Z" fill="#EFEFEF"/>
<path d="M1526 709C1526 727.225 1392.13 742 1227 742C1061.87 742 928 727.225 928 709C928 690.775 1061.87 676 1227 676C1392.13 676 1526 690.775 1526 709Z" fill="#BCBCBC"/>
<path d="M918 676L1044 287H1409L1536 676H918Z" fill="#F6F6F6"/>
<path d="M1536 678C1536 696.225 1397.66 711 1227 711C1056.34 711 918 696.225 918 678C918 659.775 1056.34 645 1227 645C1397.66 645 1536 659.775 1536 678Z" fill="#F6F6F6"/>
<path fill-rule="evenodd" clip-rule="evenodd" d="M910.701 673.233C914.991 669.754 921.288 670.411 924.767 674.701C928.181 678.911 933.329 685.264 937.678 690.642C941.761 695.691 945.723 700.592 946.205 701.284L929.795 712.716C929.823 712.756 929.205 711.99 928.097 710.615C926.744 708.936 924.659 706.349 922.126 703.217C917.786 697.85 912.644 691.504 909.233 687.299C905.754 683.009 906.412 676.712 910.701 673.233Z" fill="#BCBCBC"/>
<path fill-rule="evenodd" clip-rule="evenodd" d="M1542.26 674.204C1537.96 670.745 1531.66 671.431 1528.2 675.737C1524.95 679.786 1520.05 685.897 1515.9 691.069C1513.83 693.654 1511.95 696.009 1510.56 697.757C1510.49 697.845 1510.42 697.933 1510.35 698.021C1509.25 699.398 1508.1 700.84 1507.76 701.341L1524.25 712.658C1524.14 712.817 1524.31 712.6 1524.88 711.881C1525.19 711.486 1525.62 710.94 1526.2 710.222C1527.57 708.494 1529.45 706.153 1531.51 703.571C1535.65 698.41 1540.55 692.308 1543.8 688.263C1547.25 683.957 1546.57 677.663 1542.26 674.204Z" fill="#BCBCBC"/>
<path fill-rule="evenodd" clip-rule="evenodd" d="M1544.32 676.453C1547.38 681.048 1546.14 687.257 1541.55 690.321C1532.46 696.38 1516.7 701.154 1497.7 705.156C1478.22 709.262 1453.77 712.844 1426.1 715.848C1370.74 721.859 1301.84 725.621 1232.56 726.499C1163.31 727.377 1093.43 725.375 1036.16 719.797C1007.54 717.009 981.871 713.31 960.909 708.57C940.3 703.91 922.999 697.987 912.125 690.092C907.656 686.847 906.663 680.594 909.908 676.125C913.153 671.656 919.406 670.663 923.875 673.908C931.251 679.263 945.122 684.496 965.32 689.063C985.165 693.55 1009.93 697.147 1038.1 699.891C1094.41 705.375 1163.51 707.373 1232.31 706.501C1301.1 705.629 1369.35 701.892 1423.94 695.965C1451.25 693 1474.98 689.504 1493.58 685.586C1512.67 681.565 1524.92 677.37 1530.45 673.68C1535.05 670.616 1541.26 671.858 1544.32 676.453Z" fill="#BCBCBC"/>
<path d="M1226 1063C1226 1070.18 1220.4 1076 1213.5 1076C1206.6 1076 1201 1070.18 1201 1063C1201 1055.82 1206.6 1050 1213.5 1050C1220.4 1050 1226 1055.82 1226 1063Z" fill="#4E4E4E"/>
<path d="M1226 1063C1226 1070.18 1220.4 1076 1213.5 1076C1206.6 1076 1201 1070.18 1201 1063C1201 1055.82 1206.6 1050 1213.5 1050C1220.4 1050 1226 1055.82 1226 1063Z" fill="#4E4E4E"/>
<path d="M1073 767C1073 774.18 1067.4 780 1060.5 780C1053.6 780 1048 774.18 1048 767C1048 759.82 1053.6 754 1060.5 754C1067.4 754 1073 759.82 1073 767Z" fill="#4E4E4E"/>
<path d="M1073 767C1073 774.18 1067.4 780 1060.5 780C1053.6 780 1048 774.18 1048 767C1048 759.82 1053.6 754 1060.5 754C1067.4 754 1073 759.82 1073 767Z" fill="#4E4E4E"/>
<path d="M1301 965C1301 958.373 1306.37 953 1313 953H1352C1358.63 953 1364 958.373 1364 965V1016C1364 1022.63 1358.63 1028 1352 1028H1313C1306.37 1028 1301 1022.63 1301 1016V965Z" fill="#8E8E8E"/>
<path fill-rule="evenodd" clip-rule="evenodd" d="M1352 956H1313C1308.03 956 1304 960.029 1304 965V1016C1304 1020.97 1308.03 1025 1313 1025H1352C1356.97 1025 1361 1020.97 1361 1016V965C1361 960.029 1356.97 956 1352 956ZM1313 953C1306.37 953 1301 958.373 1301 965V1016C1301 1022.63 1306.37 1028 1313 1028H1352C1358.63 1028 1364 1022.63 1364 1016V965C1364 958.373 1358.63 953 1352 953H1313Z" fill="#BCBCBC"/>
<path fill-rule="evenodd" clip-rule="evenodd" d="M1167.9 390.316C1167.7 390.627 1167.44 391.068 1167.12 391.662C1166.28 393.232 1165.24 395.475 1164.01 398.388C1161.56 404.191 1158.59 412.184 1155.32 421.75C1148.8 440.858 1141.25 465.87 1134.57 491.398C1127.88 516.956 1122.13 542.833 1119.17 563.726C1117.68 574.194 1116.93 583.18 1117.05 590.146C1117.11 593.627 1117.39 596.419 1117.82 598.543C1118.28 600.75 1118.82 601.748 1119.04 602.059C1119.24 602.327 1119.98 603.086 1121.88 604.098C1123.72 605.075 1126.25 606.074 1129.51 607.04C1136.04 608.974 1144.76 610.562 1155.15 611.777C1175.89 614.201 1202.31 615.029 1228.99 614.563C1255.66 614.098 1282.35 612.346 1303.6 609.675C1314.23 608.339 1323.36 606.789 1330.37 605.095C1333.88 604.248 1336.74 603.393 1338.94 602.558C1341.04 601.761 1342.17 601.118 1342.66 600.765C1342.74 600.638 1342.99 600.207 1343.27 599.233C1343.72 597.678 1344.06 595.374 1344.16 592.214C1344.38 585.908 1343.64 577.372 1342.06 567.12C1338.91 546.692 1332.62 520.7 1325.28 494.727C1317.95 468.795 1309.63 443.108 1302.48 423.358C1298.9 413.473 1295.64 405.161 1292.97 399.085C1291.63 396.036 1290.49 393.657 1289.57 391.963C1289.04 390.992 1288.68 390.448 1288.51 390.189C1288.35 390.115 1288.11 390.012 1287.77 389.887C1286.8 389.535 1285.43 389.148 1283.6 388.758C1279.95 387.98 1275.07 387.306 1269.25 386.764C1257.64 385.685 1242.91 385.188 1228.09 385.25C1213.28 385.312 1198.57 385.931 1186.99 387.043C1181.19 387.601 1176.32 388.27 1172.68 389.017C1170.85 389.391 1169.48 389.758 1168.51 390.09C1168.25 390.178 1168.05 390.254 1167.9 390.316ZM1168.19 389.881C1168.21 389.862 1168.22 389.853 1168.22 389.853C1168.22 389.854 1168.21 389.863 1168.19 389.881ZM1292.91 375.795C1294.63 376.423 1296.7 377.351 1298.4 378.823C1300.25 380.419 1301.71 382.901 1302.73 384.78C1303.95 387.002 1305.28 389.813 1306.71 393.053C1309.56 399.553 1312.95 408.206 1316.58 418.25C1323.87 438.36 1332.3 464.391 1339.72 490.647C1347.13 516.862 1353.59 543.526 1356.88 564.833C1358.52 575.448 1359.42 585.048 1359.16 592.725C1359.03 596.557 1358.6 600.205 1357.68 603.385C1356.79 606.472 1355.22 609.9 1352.22 612.329C1350 614.129 1347.14 615.491 1344.26 616.582C1341.28 617.714 1337.77 618.739 1333.89 619.676C1326.13 621.551 1316.4 623.184 1305.47 624.558C1283.58 627.31 1256.34 629.089 1229.26 629.561C1202.19 630.033 1175.05 629.205 1153.41 626.676C1142.61 625.414 1132.94 623.701 1125.25 621.422C1121.4 620.282 1117.87 618.947 1114.85 617.35C1111.91 615.788 1109.01 613.735 1106.96 610.94C1104.93 608.189 1103.81 604.839 1103.14 601.581C1102.44 598.241 1102.12 594.452 1102.05 590.404C1101.91 582.311 1102.78 572.446 1104.32 561.617C1107.4 539.917 1113.3 513.419 1120.06 487.602C1126.82 461.755 1134.48 436.391 1141.13 416.905C1144.45 407.175 1147.55 398.816 1150.19 392.561C1151.5 389.444 1152.75 386.731 1153.9 384.587C1154.47 383.516 1155.07 382.487 1155.69 381.577C1156.25 380.763 1157.11 379.618 1158.28 378.67C1159.97 377.305 1162 376.462 1163.64 375.899C1165.43 375.288 1167.48 374.771 1169.66 374.323C1174.04 373.425 1179.49 372.695 1185.56 372.112C1197.71 370.944 1212.91 370.313 1228.03 370.25C1243.15 370.187 1258.39 370.69 1270.64 371.829C1276.75 372.397 1282.27 373.137 1286.73 374.089C1288.96 374.564 1291.06 375.122 1292.91 375.795Z" fill="#EFEFEF"/>
<path d="M1409 287C1409 300.255 1327.29 311 1226.5 311C1125.71 311 1044 300.255 1044 287C1044 273.745 1125.71 263 1226.5 263C1327.29 263 1409 273.745 1409 287Z" fill="#D9D9D9"/>
<path d="M1379 287C1379 298.046 1310.95 307 1227 307C1143.05 307 1075 298.046 1075 287C1075 275.954 1143.05 267 1227 267C1310.95 267 1379 275.954 1379 287Z" fill="#2F2F2F"/>
</svg>
